HIERARCHY
ROOT Hips
{
	OFFSET 0.000000 0.000000 0.000000
	CHANNELS 6 Xposition Yposition Zposition Xrotation Yrotation Zrotation
	JOINT LeftUpLeg_virtual
	{
		OFFSET 0.000000 0.000000 0.000000
		CHANNELS 3 Xrotation Yrotation Zrotation
		JOINT LeftUpLeg
		{
			OFFSET 11.394100 -6.187798 -0.413800
			CHANNELS 3 Xrotation Yrotation Zrotation
			JOINT LeftLeg
			{
				OFFSET 0.430247 -32.302673 3.732800
				CHANNELS 3 Xrotation Yrotation Zrotation
				JOINT LeftFoot
				{
					OFFSET -0.430247 -48.264931 -6.423300
					CHANNELS 3 Xrotation Yrotation Zrotation
					JOINT LeftToeBase
					{
						OFFSET 4.230900 -16.068199 23.438400
						CHANNELS 3 Xrotation Yrotation Zrotation
						JOINT LeftToe_End
						{
							OFFSET 4.510700 0.695400 19.974600
							CHANNELS 3 Xrotation Yrotation Zrotation
							End Site
							{
								OFFSET 0 0 0
							}
						}
					}
				}
			}
		}
	}
	JOINT RightUpLeg_virtual
	{
		OFFSET 0.000000 0.000000 0.000000
		CHANNELS 3 Xrotation Yrotation Zrotation
		JOINT RightUpLeg
		{
			OFFSET -11.333700 -6.187798 -0.413800
			CHANNELS 3 Xrotation Yrotation Zrotation
			JOINT RightLeg
			{
				OFFSET -0.430392 -32.302628 3.733000
				CHANNELS 3 Xrotation Yrotation Zrotation
				JOINT RightFoot
				{
					OFFSET 0.430392 -48.264973 -6.423500
					CHANNELS 3 Xrotation Yrotation Zrotation
					JOINT RightToeBase
					{
						OFFSET -4.230900 -16.068199 23.438400
						CHANNELS 3 Xrotation Yrotation Zrotation
						JOINT RightToe_End
						{
							OFFSET -4.510700 0.695400 19.974600
							CHANNELS 3 Xrotation Yrotation Zrotation
							End Site
							{
								OFFSET 0 0 0
							}
						}
					}
				}
			}
		}
	}
	JOINT Spine_virtual
	{
		OFFSET 0.000000 0.000000 0.000000
		CHANNELS 3 Xrotation Yrotation Zrotation
		JOINT Spine
		{
			OFFSET -0.002400 12.777504 0.315300
			CHANNELS 3 Xrotation Yrotation Zrotation
			JOINT Spine1
			{
				OFFSET -0.002067 5.816869 0.032633
				CHANNELS 3 Xrotation Yrotation Zrotation
				JOINT Spine1_split
				{
					OFFSET -0.002067 5.816869 0.032633
					CHANNELS 3 Xrotation Yrotation Zrotation
					JOINT Spine2
					{
						OFFSET -0.002067 5.816869 0.032633
						CHANNELS 3 Xrotation Yrotation Zrotation
						JOINT Neck_virtual
						{
							OFFSET 0.000000 0.000000 0.000000
							CHANNELS 3 Xrotation Yrotation Zrotation
							JOINT Neck
							{
								OFFSET -0.003700 21.199493 -0.826900
								CHANNELS 3 Xrotation Yrotation Zrotation
								JOINT Head
								{
									OFFSET 0.000000 20.442200 4.834800
									CHANNELS 3 Xrotation Yrotation Zrotation
									JOINT HeadTop_End
									{
										OFFSET 0.000000 34.668396 4.968400
										CHANNELS 3 Xrotation Yrotation Zrotation
										End Site
										{
											OFFSET 0 0 0
										}
									}
								}
							}
						}
						JOINT LeftShoulder_virtual
						{
							OFFSET 0.000000 0.000000 0.000000
							CHANNELS 3 Xrotation Yrotation Zrotation
							JOINT LeftShoulder
							{
								OFFSET 3.288150 8.794197 -1.372250
								CHANNELS 3 Xrotation Yrotation Zrotation
								JOINT LeftShoulder_split
								{
									OFFSET 3.288150 8.794197 -1.372250
									CHANNELS 3 Xrotation Yrotation Zrotation
									JOINT LeftArm
									{
										OFFSET 11.953299 -2.279007 -0.146200
										CHANNELS 3 Xrotation Yrotation Zrotation
										JOINT LeftForeArm
										{
											OFFSET 18.448900 0.000000 0.000000
											CHANNELS 3 Xrotation Yrotation Zrotation
											JOINT LeftHand
											{
												OFFSET 29.527798 0.000000 0.000000
												CHANNELS 3 Xrotation Yrotation Zrotation
												End Site
												{
													OFFSET 0 0 0
												}
											}
										}
									}
								}
							}
						}
						JOINT RightShoulder_virtual
						{
							OFFSET 0.000000 0.000000 0.000000
							CHANNELS 3 Xrotation Yrotation Zrotation
							JOINT RightShoulder
							{
								OFFSET -3.249400 8.794197 -1.372250
								CHANNELS 3 Xrotation Yrotation Zrotation
								JOINT RightShoulder_split
								{
									OFFSET -3.249400 8.794197 -1.372250
									CHANNELS 3 Xrotation Yrotation Zrotation
									JOINT RightArm
									{
										OFFSET -11.953299 -2.279007 -0.146200
										CHANNELS 3 Xrotation Yrotation Zrotation
										JOINT RightForeArm
										{
											OFFSET -18.448900 0.000000 0.000000
											CHANNELS 3 Xrotation Yrotation Zrotation
											JOINT RightHand
											{
												OFFSET -29.527802 0.000000 0.000000
												CHANNELS 3 Xrotation Yrotation Zrotation
												End Site
												{
													OFFSET 0 0 0
												}
											}
										}
									}
								}
							}
						}
					}
				}
			}
		}
	}
}
MOTION
Frames: 4
Frame Time: 0.03333333
-6.625666 91.282639 2.589245 0.000000 0.000000 0.000000 -16.758586 -65.077318 -17.584786 -37.922440 -3.109381 24.030585 40.347632 11.208150 -5.581946 4.655082 2.857306 -12.131913 2.030862 2.452330 0.536923 0.000000 0.000000 0.000000 -17.909946 -58.413663 -15.398115 -24.321580 -21.037579 -18.270515 38.595920 -10.685460 0.697815 -8.674252 -3.778975 14.883626 -6.134727 -6.376890 11.247418 0.000000 0.000000 0.000000 -26.415067 -62.887225 -22.812318 5.428831 12.635499 3.861130 2.917624 2.391834 1.565108 0.220028 3.819451 0.445003 0.000000 0.000000 0.000000 13.892392 5.510638 -1.973549 12.027974 7.682596 -2.644121 25.122918 43.405207 -13.666189 0.000000 0.000000 0.000000 13.901250 4.857529 -1.727216 9.924882 -11.123561 -6.743142 -1.433169 -14.745212 -4.248190 3.255615 -12.338609 -35.724130 -86.617973 7.702923 -80.119936 0.000000 0.000000 0.000000 14.165330 6.127666 0.035917 3.441370 5.860982 -10.355876 -1.291483 -2.758184 -11.842670 -10.942176 32.111281 41.355064 -67.520136 74.559841 56.281377 0.000000 0.000000 0.000000 
-6.983519 91.202461 4.095600 0.000000 0.000000 0.000000 -16.751942 -65.128367 -17.503147 -37.869793 -1.874296 24.567381 40.780946 10.868982 -5.700518 3.926302 2.695124 -11.944652 1.408953 2.303732 1.328691 0.000000 0.000000 0.000000 -17.202021 -58.704950 -14.894291 -24.784400 -20.391272 -17.915164 39.491433 -10.637329 0.429424 -8.308278 -4.645364 14.641998 -5.150264 -6.591440 12.160965 0.000000 0.000000 0.000000 -24.601272 -62.833977 -21.503903 5.673538 12.483543 3.768814 3.410347 2.672033 1.647903 0.019485 5.064776 0.325366 0.000000 0.000000 0.000000 13.956522 5.856205 -1.989334 11.712260 7.558358 -2.371441 24.425801 43.998050 -14.112425 0.000000 0.000000 0.000000 14.298561 5.218903 -1.835981 10.134000 -10.925816 -6.159293 -3.117934 -12.273692 -5.700350 1.892459 -10.489072 -36.723151 -86.467552 8.349601 -79.727876 0.000000 0.000000 0.000000 14.890017 6.577248 -0.049428 3.234591 7.769699 -10.765394 -1.928347 -1.447856 -11.590317 -10.574261 33.544459 41.964764 -70.067509 74.883967 58.700278 0.000000 0.000000 0.000000 
-6.979322 90.785278 5.828613 0.000000 0.000000 0.000000 -16.260961 -64.204004 -16.765565 -38.931525 0.157131 24.711833 42.087732 10.232465 -5.870524 1.788322 2.996707 -10.696121 0.516535 2.147102 2.313134 0.000000 0.000000 0.000000 -15.943553 -58.090998 -13.743148 -25.619104 -19.293823 -17.107228 40.980927 -9.880495 -0.126856 -7.715823 -5.679802 14.728108 -4.849961 -6.483960 11.940255 0.000000 0.000000 0.000000 -21.841938 -62.403627 -19.144262 6.116291 12.356042 4.054523 3.482405 3.800058 1.539952 -0.296695 5.819152 0.357463 0.000000 0.000000 0.000000 13.990885 6.975549 -2.168335 10.502889 7.770893 -2.575930 23.142909 44.963019 -15.262604 0.000000 0.000000 0.000000 14.247698 6.468367 -2.097589 10.209519 -10.875092 -5.154313 -3.996095 -10.204641 -6.639674 -1.013417 -7.736470 -38.787719 -87.021056 8.655332 -80.065636 0.000000 0.000000 0.000000 15.531266 7.848623 -0.405311 3.334039 10.593551 -10.735991 -2.414000 -1.575142 -12.557217 -8.894863 35.428932 41.873414 -72.271796 74.856018 60.734541 0.000000 0.000000 0.000000 
-6.755098 90.237152 7.504017 0.000000 0.000000 0.000000 -15.220998 -62.579067 -15.412800 -40.640940 2.458438 24.203209 43.919370 9.225750 -5.821752 -0.939176 3.485501 -8.850024 -0.314066 1.977299 3.121355 0.000000 0.000000 0.000000 -14.518190 -56.935456 -12.312934 -26.969369 -17.785889 -15.943453 42.809191 -8.469685 -0.984021 -6.965140 -6.586169 15.281397 -5.512983 -6.085827 10.624784 0.000000 0.000000 0.000000 -18.550777 -61.612753 -16.194737 6.506948 12.188815 4.621716 3.155642 5.450345 1.358634 -0.469608 5.597174 0.228547 0.000000 0.000000 0.000000 14.062361 8.589929 -2.418662 8.650498 8.384001 -2.960411 21.687953 45.978562 -16.920808 0.000000 0.000000 0.000000 13.982775 8.276834 -2.470513 10.206039 -11.190872 -3.836995 -3.857386 -8.769768 -7.262548 -5.228859 -5.187277 -41.552603 -87.491411 8.689408 -80.489149 0.000000 0.000000 0.000000 16.052268 9.634290 -0.962537 3.677668 13.683289 -10.268404 -2.930307 -3.443451 -13.443832 -6.717499 36.926181 41.468541 -75.054135 74.591526 63.315956 0.000000 0.000000 0.000000 
